<svg width="148" height="38" viewBox="0 0 148 38" fill="none" xmlns="http://www.w3.org/2000/svg">
<path d="M47.04 25.8916C46.9067 25.8916 46.7933 25.8449 46.7 25.7516C46.6067 25.6583 46.56 25.5449 46.56 25.4116V12.3716C46.56 12.2383 46.6067 12.1249 46.7 12.0316C46.7933 11.9383 46.9067 11.8916 47.04 11.8916H48.9C49.0333 11.8916 49.1467 11.9383 49.24 12.0316C49.3333 12.1249 49.38 12.2383 49.38 12.3716V23.5116H55.72C55.8667 23.5116 55.9867 23.5583 56.08 23.6516C56.1733 23.7449 56.22 23.8649 56.22 24.0116V25.4116C56.22 25.5449 56.1733 25.6583 56.08 25.7516C55.9867 25.8449 55.8667 25.8916 55.72 25.8916H47.04ZM60.9416 26.0916C60.2482 26.0916 59.6216 25.9583 59.0616 25.6916C58.5016 25.4116 58.0549 25.0449 57.7216 24.5916C57.4016 24.1249 57.2416 23.6049 57.2416 23.0316C57.2416 22.0983 57.6149 21.3583 58.3616 20.8116C59.1216 20.2516 60.1216 19.8783 61.3616 19.6916L64.1016 19.2916V18.8716C64.1016 18.3116 63.9616 17.8783 63.6816 17.5716C63.4016 17.2649 62.9216 17.1116 62.2416 17.1116C61.7616 17.1116 61.3682 17.2116 61.0616 17.4116C60.7682 17.5983 60.5482 17.8516 60.4016 18.1716C60.2949 18.3449 60.1416 18.4316 59.9416 18.4316H58.3616C58.2149 18.4316 58.1016 18.3916 58.0216 18.3116C57.9549 18.2316 57.9216 18.1249 57.9216 17.9916C57.9349 17.7783 58.0216 17.5183 58.1816 17.2116C58.3416 16.9049 58.5949 16.6116 58.9416 16.3316C59.2882 16.0383 59.7349 15.7916 60.2816 15.5916C60.8282 15.3916 61.4882 15.2916 62.2616 15.2916C63.1016 15.2916 63.8082 15.3983 64.3816 15.6116C64.9682 15.8116 65.4349 16.0849 65.7816 16.4316C66.1282 16.7783 66.3816 17.1849 66.5416 17.6516C66.7016 18.1183 66.7816 18.6116 66.7816 19.1316V25.4116C66.7816 25.5449 66.7349 25.6583 66.6416 25.7516C66.5482 25.8449 66.4349 25.8916 66.3016 25.8916H64.6816C64.5349 25.8916 64.4149 25.8449 64.3216 25.7516C64.2416 25.6583 64.2016 25.5449 64.2016 25.4116V24.6316C64.0282 24.8849 63.7949 25.1249 63.5016 25.3516C63.2082 25.5649 62.8482 25.7449 62.4216 25.8916C62.0082 26.0249 61.5149 26.0916 60.9416 26.0916ZM61.6216 24.1916C62.0882 24.1916 62.5082 24.0916 62.8816 23.8916C63.2682 23.6916 63.5682 23.3849 63.7816 22.9716C64.0082 22.5449 64.1216 22.0116 64.1216 21.3716V20.9516L62.1216 21.2716C61.3349 21.3916 60.7482 21.5849 60.3616 21.8516C59.9749 22.1183 59.7816 22.4449 59.7816 22.8316C59.7816 23.1249 59.8682 23.3783 60.0416 23.5916C60.2282 23.7916 60.4616 23.9449 60.7416 24.0516C61.0216 24.1449 61.3149 24.1916 61.6216 24.1916ZM73.2873 26.0916C72.4873 26.0916 71.8007 25.9983 71.2273 25.8116C70.6673 25.6249 70.2073 25.3916 69.8473 25.1116C69.4873 24.8316 69.2207 24.5516 69.0473 24.2716C68.874 23.9916 68.7807 23.7583 68.7673 23.5716C68.754 23.4249 68.794 23.3116 68.8873 23.2316C68.994 23.1383 69.1073 23.0916 69.2273 23.0916H70.8073C70.8607 23.0916 70.9073 23.0983 70.9473 23.1116C70.9873 23.1249 71.0407 23.1649 71.1073 23.2316C71.2807 23.3783 71.4607 23.5316 71.6473 23.6916C71.8473 23.8516 72.0807 23.9916 72.3473 24.1116C72.614 24.2183 72.9473 24.2716 73.3473 24.2716C73.8673 24.2716 74.3007 24.1716 74.6473 23.9716C75.0073 23.7583 75.1873 23.4583 75.1873 23.0716C75.1873 22.7916 75.1073 22.5649 74.9473 22.3916C74.8007 22.2183 74.5207 22.0649 74.1073 21.9316C73.694 21.7849 73.1073 21.6316 72.3473 21.4716C71.6007 21.2983 70.9807 21.0783 70.4873 20.8116C69.994 20.5449 69.6273 20.2116 69.3873 19.8116C69.1473 19.4116 69.0273 18.9449 69.0273 18.4116C69.0273 17.8916 69.1807 17.3983 69.4873 16.9316C69.8073 16.4516 70.274 16.0583 70.8873 15.7516C71.514 15.4449 72.2873 15.2916 73.2073 15.2916C73.9273 15.2916 74.554 15.3849 75.0873 15.5716C75.6207 15.7449 76.0607 15.9649 76.4073 16.2316C76.7673 16.4983 77.0407 16.7716 77.2273 17.0516C77.414 17.3183 77.514 17.5516 77.5273 17.7516C77.5407 17.8983 77.5007 18.0183 77.4073 18.1116C77.314 18.1916 77.2073 18.2316 77.0873 18.2316H75.6073C75.5407 18.2316 75.4807 18.2183 75.4273 18.1916C75.374 18.1649 75.3207 18.1316 75.2673 18.0916C75.1207 17.9583 74.9607 17.8183 74.7873 17.6716C74.614 17.5249 74.4007 17.3983 74.1473 17.2916C73.9073 17.1716 73.5873 17.1116 73.1873 17.1116C72.6807 17.1116 72.294 17.2249 72.0273 17.4516C71.7607 17.6649 71.6273 17.9383 71.6273 18.2716C71.6273 18.4983 71.6873 18.6983 71.8073 18.8716C71.9407 19.0316 72.2007 19.1849 72.5873 19.3316C72.974 19.4783 73.5607 19.6316 74.3473 19.7916C75.2407 19.9516 75.9473 20.1916 76.4673 20.5116C77.0007 20.8183 77.374 21.1783 77.5873 21.5916C77.814 21.9916 77.9273 22.4383 77.9273 22.9316C77.9273 23.5316 77.7473 24.0716 77.3873 24.5516C77.0407 25.0316 76.5207 25.4116 75.8273 25.6916C75.1473 25.9583 74.3007 26.0916 73.2873 26.0916ZM80.4919 25.8916C80.3585 25.8916 80.2452 25.8449 80.1519 25.7516C80.0585 25.6583 80.0119 25.5449 80.0119 25.4116V12.1716C80.0119 12.0383 80.0585 11.9249 80.1519 11.8316C80.2452 11.7383 80.3585 11.6916 80.4919 11.6916H82.1519C82.2852 11.6916 82.3985 11.7383 82.4919 11.8316C82.5852 11.9249 82.6319 12.0383 82.6319 12.1716V25.4116C82.6319 25.5449 82.5852 25.6583 82.4919 25.7516C82.3985 25.8449 82.2852 25.8916 82.1519 25.8916H80.4919ZM89.7648 26.0916C88.2848 26.0916 87.1115 25.6649 86.2448 24.8116C85.3782 23.9583 84.9115 22.7449 84.8448 21.1716C84.8315 21.0383 84.8248 20.8716 84.8248 20.6716C84.8248 20.4583 84.8315 20.2916 84.8448 20.1716C84.8982 19.1716 85.1248 18.3049 85.5248 17.5716C85.9382 16.8383 86.5048 16.2783 87.2248 15.8916C87.9448 15.4916 88.7915 15.2916 89.7648 15.2916C90.8448 15.2916 91.7515 15.5183 92.4848 15.9716C93.2182 16.4116 93.7715 17.0316 94.1448 17.8316C94.5182 18.6183 94.7048 19.5316 94.7048 20.5716V20.9916C94.7048 21.1249 94.6582 21.2383 94.5648 21.3316C94.4715 21.4249 94.3515 21.4716 94.2048 21.4716H87.5648C87.5648 21.4716 87.5648 21.4916 87.5648 21.5316C87.5648 21.5716 87.5648 21.6049 87.5648 21.6316C87.5782 22.0983 87.6648 22.5316 87.8248 22.9316C87.9982 23.3183 88.2448 23.6316 88.5648 23.8716C88.8982 24.1116 89.2915 24.2316 89.7448 24.2316C90.1182 24.2316 90.4315 24.1783 90.6848 24.0716C90.9382 23.9516 91.1448 23.8183 91.3048 23.6716C91.4648 23.5249 91.5782 23.4049 91.6448 23.3116C91.7648 23.1516 91.8582 23.0583 91.9248 23.0316C92.0048 22.9916 92.1182 22.9716 92.2648 22.9716H93.9848C94.1182 22.9716 94.2248 23.0116 94.3048 23.0916C94.3982 23.1716 94.4382 23.2716 94.4248 23.3916C94.4115 23.6049 94.2982 23.8649 94.0848 24.1716C93.8848 24.4783 93.5915 24.7783 93.2048 25.0716C92.8182 25.3649 92.3315 25.6116 91.7448 25.8116C91.1715 25.9983 90.5115 26.0916 89.7648 26.0916ZM87.5648 19.7916H91.9848V19.7316C91.9848 19.2116 91.8982 18.7583 91.7248 18.3716C91.5515 17.9849 91.2982 17.6783 90.9648 17.4516C90.6315 17.2249 90.2315 17.1116 89.7648 17.1116C89.2982 17.1116 88.8982 17.2249 88.5648 17.4516C88.2315 17.6783 87.9782 17.9849 87.8048 18.3716C87.6448 18.7583 87.5648 19.2116 87.5648 19.7316V19.7916ZM100.768 26.0916C99.9678 26.0916 99.2811 25.9983 98.7078 25.8116C98.1478 25.6249 97.6878 25.3916 97.3278 25.1116C96.9678 24.8316 96.7011 24.5516 96.5278 24.2716C96.3545 23.9916 96.2611 23.7583 96.2478 23.5716C96.2345 23.4249 96.2745 23.3116 96.3678 23.2316C96.4745 23.1383 96.5878 23.0916 96.7078 23.0916H98.2878C98.3411 23.0916 98.3878 23.0983 98.4278 23.1116C98.4678 23.1249 98.5211 23.1649 98.5878 23.2316C98.7611 23.3783 98.9411 23.5316 99.1278 23.6916C99.3278 23.8516 99.5611 23.9916 99.8278 24.1116C100.094 24.2183 100.428 24.2716 100.828 24.2716C101.348 24.2716 101.781 24.1716 102.128 23.9716C102.488 23.7583 102.668 23.4583 102.668 23.0716C102.668 22.7916 102.588 22.5649 102.428 22.3916C102.281 22.2183 102.001 22.0649 101.588 21.9316C101.174 21.7849 100.588 21.6316 99.8278 21.4716C99.0811 21.2983 98.4611 21.0783 97.9678 20.8116C97.4745 20.5449 97.1078 20.2116 96.8678 19.8116C96.6278 19.4116 96.5078 18.9449 96.5078 18.4116C96.5078 17.8916 96.6611 17.3983 96.9678 16.9316C97.2878 16.4516 97.7545 16.0583 98.3678 15.7516C98.9945 15.4449 99.7678 15.2916 100.688 15.2916C101.408 15.2916 102.034 15.3849 102.568 15.5716C103.101 15.7449 103.541 15.9649 103.888 16.2316C104.248 16.4983 104.521 16.7716 104.708 17.0516C104.894 17.3183 104.994 17.5516 105.008 17.7516C105.021 17.8983 104.981 18.0183 104.888 18.1116C104.794 18.1916 104.688 18.2316 104.568 18.2316H103.088C103.021 18.2316 102.961 18.2183 102.908 18.1916C102.854 18.1649 102.801 18.1316 102.748 18.0916C102.601 17.9583 102.441 17.8183 102.268 17.6716C102.094 17.5249 101.881 17.3983 101.628 17.2916C101.388 17.1716 101.068 17.1116 100.668 17.1116C100.161 17.1116 99.7745 17.2249 99.5078 17.4516C99.2411 17.6649 99.1078 17.9383 99.1078 18.2716C99.1078 18.4983 99.1678 18.6983 99.2878 18.8716C99.4211 19.0316 99.6811 19.1849 100.068 19.3316C100.454 19.4783 101.041 19.6316 101.828 19.7916C102.721 19.9516 103.428 20.1916 103.948 20.5116C104.481 20.8183 104.854 21.1783 105.068 21.5916C105.294 21.9916 105.408 22.4383 105.408 22.9316C105.408 23.5316 105.228 24.0716 104.868 24.5516C104.521 25.0316 104.001 25.4116 103.308 25.6916C102.628 25.9583 101.781 26.0916 100.768 26.0916ZM111.552 25.8916C111.326 25.8916 111.146 25.8316 111.012 25.7116C110.879 25.5916 110.786 25.4516 110.732 25.2916L106.652 12.4916C106.626 12.4249 106.612 12.3649 106.612 12.3116C106.612 12.2049 106.652 12.1116 106.732 12.0316C106.826 11.9383 106.932 11.8916 107.052 11.8916H109.532C109.746 11.8916 109.912 11.9516 110.032 12.0716C110.152 12.1916 110.226 12.3049 110.252 12.4116L113.072 21.6516L115.912 12.4116C115.952 12.3049 116.026 12.1916 116.132 12.0716C116.252 11.9516 116.419 11.8916 116.632 11.8916H119.112C119.232 11.8916 119.332 11.9383 119.412 12.0316C119.506 12.1116 119.552 12.2049 119.552 12.3116C119.552 12.3649 119.539 12.4249 119.512 12.4916L115.432 25.2916C115.379 25.4516 115.286 25.5916 115.152 25.7116C115.032 25.8316 114.852 25.8916 114.612 25.8916H111.552ZM121.92 25.8916C121.773 25.8916 121.653 25.8449 121.56 25.7516C121.466 25.6583 121.42 25.5383 121.42 25.3916V12.3916C121.42 12.2449 121.466 12.1249 121.56 12.0316C121.653 11.9383 121.773 11.8916 121.92 11.8916H127.52C128.626 11.8916 129.586 12.0649 130.4 12.4116C131.226 12.7449 131.866 13.2516 132.32 13.9316C132.786 14.6116 133.02 15.4716 133.02 16.5116C133.02 17.5383 132.786 18.3849 132.32 19.0516C131.866 19.7183 131.226 20.2116 130.4 20.5316C129.586 20.8516 128.626 21.0116 127.52 21.0116H125.14V25.3916C125.14 25.5383 125.086 25.6583 124.98 25.7516C124.886 25.8449 124.766 25.8916 124.62 25.8916H121.92ZM125.08 18.2516H127.42C127.993 18.2516 128.446 18.1049 128.78 17.8116C129.126 17.5183 129.3 17.0716 129.3 16.4716C129.3 15.9649 129.153 15.5383 128.86 15.1916C128.566 14.8449 128.086 14.6716 127.42 14.6716H125.08V18.2516ZM135.435 25.8916C135.288 25.8916 135.168 25.8449 135.075 25.7516C134.982 25.6583 134.935 25.5383 134.935 25.3916V12.3916C134.935 12.2449 134.982 12.1249 135.075 12.0316C135.168 11.9383 135.288 11.8916 135.435 11.8916H137.555C137.782 11.8916 137.942 11.9449 138.035 12.0516C138.142 12.1449 138.208 12.2183 138.235 12.2716L143.115 19.9716V12.3916C143.115 12.2449 143.162 12.1249 143.255 12.0316C143.348 11.9383 143.468 11.8916 143.615 11.8916H146.015C146.162 11.8916 146.282 11.9383 146.375 12.0316C146.468 12.1249 146.515 12.2449 146.515 12.3916V25.3916C146.515 25.5249 146.468 25.6449 146.375 25.7516C146.282 25.8449 146.162 25.8916 146.015 25.8916H143.875C143.662 25.8916 143.502 25.8383 143.395 25.7316C143.302 25.6249 143.242 25.5516 143.215 25.5116L138.335 18.1116V25.3916C138.335 25.5383 138.288 25.6583 138.195 25.7516C138.102 25.8449 137.982 25.8916 137.835 25.8916H135.435Z" fill="#0B132A"/>
<path d="M31.1473 14.4231L31.1255 14.4014C31.1238 14.4001 31.1224 14.3985 31.1215 14.3966L17.5006 0.775391L3.87983 14.3963C3.87826 14.3979 3.8758 14.401 3.8758 14.401L3.85333 14.4228C1.77053 16.5173 0.447586 19.2479 0.0948177 22.1806C-0.25795 25.1133 0.379698 28.0798 1.90639 30.6085C3.43309 33.1373 5.76122 35.0831 8.52069 36.1366C11.2802 37.1901 14.3126 37.2911 17.136 36.4231C17.3735 36.3505 17.6275 36.3505 17.8651 36.4231C20.6882 37.2907 23.7205 37.1898 26.4798 36.1361C29.2391 35.0824 31.567 33.1367 33.0936 30.6082C34.6202 28.0796 35.2579 25.1133 34.9053 22.1808C34.5526 19.2482 33.2299 16.5176 31.1473 14.4231ZM8.7232 23.4052C8.65689 23.4715 8.6043 23.5503 8.56844 23.6368C8.53257 23.7234 8.5141 23.8162 8.51412 23.91C8.53835 26.314 9.21776 28.6658 10.4792 30.7125C10.5079 30.7589 10.5211 30.8132 10.517 30.8676C10.513 30.9219 10.4918 30.9736 10.4566 31.0153C10.4213 31.057 10.3738 31.0864 10.3209 31.0994C10.2679 31.1124 10.2122 31.1084 10.1616 31.0878C9.21332 30.6889 8.35182 30.109 7.62531 29.3807C6.13646 27.8916 5.29946 25.8724 5.2981 23.7666C5.29675 21.6609 6.13117 19.6406 7.61812 18.1497L17.5006 8.26812L27.3826 18.1497C28.8698 19.6404 29.7045 21.6607 29.703 23.7666C29.7018 25.8724 28.8647 27.8916 27.3757 29.3807C26.6492 30.109 25.7877 30.6889 24.8396 31.0878C24.7889 31.1084 24.7332 31.1124 24.6802 31.0994C24.6273 31.0864 24.5798 31.0568 24.5445 31.0153C24.5093 30.9736 24.488 30.9219 24.484 30.8674C24.4799 30.8131 24.4931 30.7587 24.5218 30.7123C25.7835 28.6658 26.4633 26.314 26.4879 23.91C26.4879 23.8162 26.4692 23.7234 26.4332 23.6367C26.3971 23.55 26.3444 23.4713 26.2779 23.405L21.6037 18.4471C21.5571 18.4083 21.4985 18.387 21.4378 18.387C21.3773 18.387 21.3186 18.4083 21.2721 18.4471C21.2255 18.4858 21.1942 18.5398 21.1833 18.5994C21.1724 18.6591 21.1828 18.7204 21.2127 18.7732C23.0281 22.0584 21.467 26.7771 18.8637 29.3807L18.85 29.3945C18.4907 29.7499 18.0056 29.9492 17.5002 29.949C16.9948 29.9488 16.5098 29.7492 16.1508 29.3936L16.1382 29.3807C13.5339 26.7771 11.9736 22.0589 13.7893 18.7739C13.8192 18.7211 13.8296 18.6598 13.8187 18.6001C13.8079 18.5405 13.7764 18.4865 13.7299 18.4478C13.6834 18.409 13.6247 18.3877 13.5642 18.3877C13.5036 18.3877 13.4449 18.409 13.3984 18.4478L8.7232 23.4052Z" fill="#F53838"/>
</svg>
